<svg width="112" height="112" viewBox="0 0 112 112" fill="none" xmlns="http://www.w3.org/2000/svg">
<path d="M65.709 68.95C66.7948 71.1511 68.4796 73.0013 70.5698 74.2878C72.66 75.5744 75.0707 76.2451 77.525 76.223C82.488 76.223 85.659 73.7415 85.659 70.315C85.659 66.2095 82.4005 64.7535 76.9405 62.363L73.9445 61.0785C65.303 57.3965 59.5595 52.7835 59.5595 43.0325C59.5595 34.048 66.4055 27.2125 77.1015 27.2125C80.573 26.9606 84.0417 27.7376 87.0739 29.4464C90.1062 31.1552 92.5675 33.72 94.15 36.82L84.8225 42.8085C84.2118 41.2723 83.148 39.9584 81.7727 39.0413C80.3973 38.1242 78.7754 37.6473 77.1225 37.674C76.402 37.6015 75.6744 37.68 74.9859 37.9043C74.2974 38.1287 73.6633 38.4941 73.1239 38.9772C72.5845 39.4603 72.1517 40.0505 71.853 40.7101C71.5544 41.3698 71.3966 42.0844 71.3895 42.8085C71.3895 46.403 73.6155 47.8555 78.7395 50.0815L81.7355 51.3625C91.9135 55.727 97.657 60.1755 97.657 70.1785C97.657 80.962 89.187 86.87 77.8085 86.87C73.3764 87.1519 68.9573 86.1453 65.0845 83.9717C61.2117 81.7981 58.0506 78.5502 55.9825 74.62L65.709 68.95ZM23.401 70C25.284 73.339 26.9955 76.16 31.101 76.16C35.035 76.16 37.52 74.62 37.52 68.635V27.9125H49.497V68.803C49.497 81.2035 42.224 86.849 31.612 86.849C27.8635 87.0519 24.1413 86.1153 20.9352 84.1625C17.7292 82.2096 15.1894 79.3319 13.65 75.908L23.401 70Z" fill="white"/>
</svg>
